{"asset":{"version":"2.0","generator":"babylon.js glTF exporter for 3dsmax 2017 v20211115.1"},"scene":0,"scenes":[{"nodes":[0]}],"nodes":[{"children":[1,4,11],"rotation":[0.7071068,0.0,0.0,0.7071067],"scale":[0.01,0.01,0.01],"name":"PIVOT_NORTH_WALL"},{"children":[2],"rotation":[1.77635684E-15,0.0,0.0,1.0],"name":"PIVOT_WALL_NB"},{"children":[3],"rotation":[1.77635684E-15,0.0,0.0,1.0],"name":"NB"},{"translation":[17.5,-210.700027,276.8],"rotation":[1.77635684E-15,0.0,0.0,1.0],"name":"_Obj_NB_t"},{"children":[5,7,9,10],"translation":[188.8,-19.0000286,10.6000071],"rotation":[1.77635684E-15,0.0,0.0,1.0],"name":"PIVOT_PANEL_N_LEFT"},{"children":[6],"translation":[-93.6,-6.00000763,7.90000057],"rotation":[1.77635684E-15,0.0,0.0,1.0],"name":"NL1F"},{"translation":[-77.7000046,-185.7,258.299957],"rotation":[1.77635684E-15,0.0,0.0,1.0],"name":"_Obj_NL1F_t"},{"children":[8],"translation":[-92.9,4.199997,-13.7],"rotation":[1.77635684E-15,0.0,0.0,1.0],"name":"NL1B"},{"translation":[-78.4,-195.9,279.9],"rotation":[1.77635684E-15,0.0,0.0,1.0],"name":"_Obj_NL1B_t"},{"mesh":0,"translation":[-97.7,-6.39999771,-118.6],"rotation":[-0.7071068,0.0,0.0,0.7071067],"scale":[0.06849763,0.04820002,1.0],"name":"TARGET_P51"},{"mesh":0,"translation":[-97.7,-6.90000153,93.79999],"rotation":[-0.7071068,0.0,0.0,0.7071067],"scale":[0.1258781,0.0972840041,1.0],"name":"TARGET_P53"},{"children":[12,13,14],"translation":[-195.9,-19.0000286,10.6000071],"rotation":[1.77635684E-15,0.0,0.0,1.0],"name":"PIVOT_PANEL_N_RIGHT"},{"translation":[98.50002,-6.00000763,7.90000057],"rotation":[1.77635684E-15,0.0,0.0,1.0],"name":"NR1F"},{"translation":[213.400009,-191.7,266.199921],"rotation":[1.77635684E-15,0.0,0.0,1.0],"name":"_Obj_NR1F_t"},{"children":[15],"translation":[102.700012,-1.00000572,11.9999971],"rotation":[1.77635684E-15,0.0,0.0,1.0],"name":"NR1B"},{"translation":[110.7,-190.7,254.199982],"rotation":[1.77635684E-15,0.0,0.0,1.0],"name":"_Obj_NR1B_t"}],"meshes":[{"primitives":[{"attributes":{"POSITION":1,"NORMAL":2,"TEXCOORD_0":3},"indices":0,"material":0}],"name":"TARGET_P51"}],"accessors":[{"bufferView":0,"componentType":5123,"count":600,"type":"SCALAR","name":"accessorIndices"},{"bufferView":1,"componentType":5126,"count":121,"max":[500.0,500.0,1.110223E-14],"min":[-500.0,-500.0,-1.110223E-14],"type":"VEC3","name":"accessorPositions"},{"bufferView":1,"byteOffset":1452,"componentType":5126,"count":121,"type":"VEC3","name":"accessorNormals"},{"bufferView":2,"componentType":5126,"count":121,"type":"VEC2","name":"accessorUVs"}],"bufferViews":[{"buffer":0,"byteLength":1200,"name":"bufferViewScalar"},{"buffer":0,"byteOffset":1200,"byteLength":2904,"byteStride":12,"name":"bufferViewFloatVec3"},{"buffer":0,"byteOffset":4104,"byteLength":968,"byteStride":8,"name":"bufferViewFloatVec2"}],"buffers":[{"uri":"NORTH_WALL_TARGET_V03.bin","byteLength":5072}],"materials":[{"pbrMetallicRoughness":{"metallicFactor":0.0,"roughnessFactor":0.7022211},"name":"Default_Material"}]}