{"asset":{"version":"2.0","generator":"babylon.js glTF exporter for 3dsmax 2017 v20211115.1"},"scene":0,"scenes":[{"nodes":[0]}],"nodes":[{"children":[1,6,7,8,9,10,11,12,13,14,15,16,17],"rotation":[0.7071068,0.0,0.0,0.7071067],"scale":[0.01,0.01,0.01],"name":"PIVOT_EAST_WALL"},{"children":[2,3,4,5],"translation":[222.6,-2.29999971,310.900024],"rotation":[1.77635684E-15,0.0,0.0,1.0],"name":"_Obj_EB_t"},{"mesh":0,"translation":[-206.795837,-22.2120533,-348.0],"rotation":[9.201455E-16,0.0,0.714217067,0.69992435],"scale":[5.40000057,1.0,5.4],"name":"_0000_EB_Slice_"},{"mesh":1,"translation":[-211.7949,-22.3131142,-348.0],"rotation":[9.201455E-16,0.0,0.714217067,0.69992435],"scale":[5.40000057,1.0,5.4],"name":"_0001_EB_Slice_"},{"mesh":2,"translation":[-216.793869,-22.4141769,-348.0],"rotation":[9.201455E-16,0.0,0.714217067,0.69992435],"scale":[5.40000057,1.0,5.4],"name":"_0002_EB_Slice_"},{"mesh":3,"translation":[-221.79274,-22.5152321,-348.0],"rotation":[9.201455E-16,0.0,0.714217067,0.69992435],"scale":[5.40000057,1.0,5.4],"name":"_0003_EB_Slice_"},{"mesh":4,"translation":[3.3,-5.6,115.6],"rotation":[1.54178621E-15,-0.7071068,-2.50166E-15,0.7071067],"scale":[0.125524059,0.203671873,1.0],"name":"TARGET_P66"},{"mesh":4,"translation":[3.3,-5.59999943,-23.1999969],"rotation":[1.46836782E-15,-0.7071068,-1.19126682E-15,0.7071067],"scale":[0.0659001246,0.0534638651,1.0],"name":"TARGET_P62"},{"mesh":4,"translation":[6.1,-120.500008,-15.5],"rotation":[1.35372446E-15,-0.7071068,-1.19126682E-15,0.7071067],"scale":[0.0659001246,0.115983166,1.0],"name":"TARGET_P63"},{"mesh":4,"translation":[6.1,108.299995,-9.2],"rotation":[-7.486785E-23,-0.7071068,-1.28676915E-15,0.7071067],"scale":[0.0610091,0.105834633,1.0],"name":"TARGET_P61"},{"mesh":4,"translation":[-1.30000007,108.299973,-91.5],"rotation":[2.76006258E-15,-0.7071068,-1.74477183E-15,0.7071067],"scale":[0.04499421,0.05688612,1.0],"name":"TARGET_P57"},{"mesh":4,"translation":[1.9,-2.49999952,-108.9],"rotation":[2.76006258E-15,-0.7071068,-2.94891E-15,0.7071067],"scale":[0.0399323627,0.05688612,1.0],"name":"TARGET_P58"},{"mesh":4,"translation":[4.4,-116.600006,-92.29999],"rotation":[2.76006258E-15,-0.7071068,-1.8287814E-15,0.7071067],"scale":[0.04292729,0.05688612,1.0],"name":"TARGET_P59"},{"mesh":4,"translation":[1.8,-2.99999976,-170.2],"rotation":[1.62461131E-15,-0.7071068,-1.06016306E-15,0.7071067],"scale":[0.03702479,0.09664419,1.0],"name":"TARGET_P60"},{"mesh":4,"translation":[-1.9,146.299988,85.09999],"rotation":[1.78958919E-15,-0.7071068,-1.390378E-15,0.7071067],"scale":[0.0564628,0.0438674,1.0],"name":"TARGET_P64"},{"mesh":4,"translation":[6.1,-156.7,155.299973],"rotation":[-7.486785E-23,-0.7071068,-9.517025E-16,0.7071067],"scale":[0.0412443131,0.0561555661,1.0],"name":"TARGET_P68"},{"mesh":4,"translation":[6.100011,-156.7,83.7],"rotation":[1.74748085E-15,-0.7071068,0.0,0.7071067],"scale":[0.0599917248,0.0449244529,1.0],"name":"TARGET_P110"},{"mesh":4,"translation":[-0.4,147.09996,157.2],"rotation":[1.37057332E-15,-0.7071068,-1.86608325E-15,0.7071067],"scale":[0.0420692,0.0572786778,1.02],"name":"TARGET_P209"}],"meshes":[{"primitives":[{"attributes":{"POSITION":1,"NORMAL":2,"TEXCOORD_0":3},"indices":0,"material":0}],"name":"_0000_EB_Slice_"},{"primitives":[{"attributes":{"POSITION":5,"NORMAL":6,"TEXCOORD_0":7},"indices":4,"material":1}],"name":"_0001_EB_Slice_"},{"primitives":[{"attributes":{"POSITION":9,"NORMAL":10,"TEXCOORD_0":11},"indices":8,"material":2}],"name":"_0002_EB_Slice_"},{"primitives":[{"attributes":{"POSITION":13,"NORMAL":14,"TEXCOORD_0":15},"indices":12,"material":3}],"name":"_0003_EB_Slice_"},{"primitives":[{"attributes":{"POSITION":17,"NORMAL":18,"TEXCOORD_0":19},"indices":16,"material":4}],"name":"TARGET_P66"}],"accessors":[{"bufferView":0,"componentType":5123,"count":6,"type":"SCALAR","name":"accessorIndices"},{"bufferView":1,"componentType":5126,"count":4,"max":[50.0,3.06161689E-15,50.0],"min":[-50.0,-3.06161689E-15,-50.0],"type":"VEC3","name":"accessorPositions"},{"bufferView":1,"byteOffset":48,"componentType":5126,"count":4,"type":"VEC3","name":"accessorNormals"},{"bufferView":2,"componentType":5126,"count":4,"type":"VEC2","name":"accessorUVs"},{"bufferView":0,"byteOffset":12,"componentType":5123,"count":6,"type":"SCALAR","name":"accessorIndices"},{"bufferView":1,"byteOffset":96,"componentType":5126,"count":4,"max":[50.0,3.06161689E-15,50.0],"min":[-50.0,-3.06161689E-15,-50.0],"type":"VEC3","name":"accessorPositions"},{"bufferView":1,"byteOffset":144,"componentType":5126,"count":4,"type":"VEC3","name":"accessorNormals"},{"bufferView":2,"byteOffset":32,"componentType":5126,"count":4,"type":"VEC2","name":"accessorUVs"},{"bufferView":0,"byteOffset":24,"componentType":5123,"count":6,"type":"SCALAR","name":"accessorIndices"},{"bufferView":1,"byteOffset":192,"componentType":5126,"count":4,"max":[50.0,3.06161689E-15,50.0],"min":[-50.0,-3.06161689E-15,-50.0],"type":"VEC3","name":"accessorPositions"},{"bufferView":1,"byteOffset":240,"componentType":5126,"count":4,"type":"VEC3","name":"accessorNormals"},{"bufferView":2,"byteOffset":64,"componentType":5126,"count":4,"type":"VEC2","name":"accessorUVs"},{"bufferView":0,"byteOffset":36,"componentType":5123,"count":6,"type":"SCALAR","name":"accessorIndices"},{"bufferView":1,"byteOffset":288,"componentType":5126,"count":4,"max":[50.0,3.06161689E-15,50.0],"min":[-50.0,-3.06161689E-15,-50.0],"type":"VEC3","name":"accessorPositions"},{"bufferView":1,"byteOffset":336,"componentType":5126,"count":4,"type":"VEC3","name":"accessorNormals"},{"bufferView":2,"byteOffset":96,"componentType":5126,"count":4,"type":"VEC2","name":"accessorUVs"},{"bufferView":0,"byteOffset":48,"componentType":5123,"count":600,"type":"SCALAR","name":"accessorIndices"},{"bufferView":1,"byteOffset":384,"componentType":5126,"count":121,"max":[500.0,500.0,1.110223E-14],"min":[-500.0,-500.0,-1.110223E-14],"type":"VEC3","name":"accessorPositions"},{"bufferView":1,"byteOffset":1836,"componentType":5126,"count":121,"type":"VEC3","name":"accessorNormals"},{"bufferView":2,"byteOffset":128,"componentType":5126,"count":121,"type":"VEC2","name":"accessorUVs"}],"bufferViews":[{"buffer":0,"byteLength":1248,"name":"bufferViewScalar"},{"buffer":0,"byteOffset":1248,"byteLength":3288,"byteStride":12,"name":"bufferViewFloatVec3"},{"buffer":0,"byteOffset":4536,"byteLength":1096,"byteStride":8,"name":"bufferViewFloatVec2"}],"buffers":[{"uri":"EAST_WALL_EXPORT_v01.bin","byteLength":5632}],"materials":[{"pbrMetallicRoughness":{"baseColorTexture":{"index":0},"metallicFactor":0.0,"roughnessFactor":0.7022211},"name":"_Mat_0000_EB_Slice__QuadPrefab_t"},{"pbrMetallicRoughness":{"baseColorTexture":{"index":1},"metallicFactor":0.0,"roughnessFactor":0.7022211},"name":"_Mat_0001_EB_Slice__QuadPrefab_t"},{"pbrMetallicRoughness":{"baseColorTexture":{"index":2},"metallicFactor":0.0,"roughnessFactor":0.7022211},"name":"_Mat_0002_EB_Slice__QuadPrefab_t"},{"pbrMetallicRoughness":{"baseColorTexture":{"index":3},"metallicFactor":0.0,"roughnessFactor":0.7022211},"name":"_Mat_0003_EB_Slice__QuadPrefab_t"},{"pbrMetallicRoughness":{"metallicFactor":0.0,"roughnessFactor":0.7022211},"name":"Default_Material"}],"textures":[{"sampler":0,"source":0,"name":"0000_EB_Slice_.png"},{"sampler":0,"source":1,"name":"0001_EB_Slice_.png"},{"sampler":0,"source":2,"name":"0002_EB_Slice_.png"},{"sampler":0,"source":3,"name":"0003_EB_Slice_.png"}],"images":[{"uri":"0000_EB_Slice_.png"},{"uri":"0001_EB_Slice_.png"},{"uri":"0002_EB_Slice_.png"},{"uri":"0003_EB_Slice_.png"}],"samplers":[{"magFilter":9729,"minFilter":9987}]}